<?xml version="1.0" encoding="UTF-8" standalone="no"?>
<svg
   xmlns:dc="http://purl.org/dc/elements/1.1/"
   xmlns:cc="http://creativecommons.org/ns#"
   xmlns:rdf="http://www.w3.org/1999/02/22-rdf-syntax-ns#"
   xmlns:svg="http://www.w3.org/2000/svg"
   xmlns="http://www.w3.org/2000/svg"
   xmlns:sodipodi="http://sodipodi.sourceforge.net/DTD/sodipodi-0.dtd"
   xmlns:inkscape="http://www.inkscape.org/namespaces/inkscape"
   width="4.2000103mm"
   height="4.2000103mm"
   viewBox="0 0 11.905529 11.905529"
   version="1.2"
   id="svg28"
   sodipodi:docname="edificacao_ferroviaria_ou_metroviaria.svg"
   inkscape:version="0.92.4 (5da689c313, 2019-01-14)">
  <metadata
     id="metadata32">
    <rdf:RDF>
      <cc:Work
         rdf:about="">
        <dc:format>image/svg+xml</dc:format>
        <dc:type
           rdf:resource="http://purl.org/dc/dcmitype/StillImage" />
        <dc:title>Qt SVG Document</dc:title>
      </cc:Work>
    </rdf:RDF>
  </metadata>
  <sodipodi:namedview
     pagecolor="#ffffff"
     bordercolor="#666666"
     borderopacity="1"
     objecttolerance="10"
     gridtolerance="10"
     guidetolerance="10"
     inkscape:pageopacity="0"
     inkscape:pageshadow="2"
     inkscape:window-width="732"
     inkscape:window-height="480"
     id="namedview30"
     showgrid="false"
     fit-margin-top="0"
     fit-margin-left="0"
     fit-margin-right="0"
     fit-margin-bottom="0"
     inkscape:zoom="5.5312444"
     inkscape:cx="7.9370275"
     inkscape:cy="7.9370273"
     inkscape:window-x="0"
     inkscape:window-y="0"
     inkscape:window-maximized="0"
     inkscape:current-layer="svg28" />
  <title
     id="title2">Qt SVG Document</title>
  <desc
     id="desc4">Generated with Qt</desc>
  <defs
     id="defs6" />
  <g
     id="g26"
     style="fill:none;fill-rule:evenodd;stroke:#000000;stroke-width:1;stroke-linecap:square;stroke-linejoin:bevel"
     transform="translate(-10.047236,-10.047236)">
    <g
       font-size="8.25"
       font-weight="400"
       font-style="normal"
       id="g10"
       style="font-style:normal;font-weight:400;font-size:8.25px;font-family:'MS Shell Dlg 2';fill:#ffffff;fill-opacity:1;stroke:#232323;stroke-width:0.56692898;stroke-linecap:square;stroke-linejoin:bevel;stroke-opacity:1">
      <path
         d="M 10.3307,10.3307 H 21.6693 V 21.6693 H 10.3307 V 10.3307"
         id="path8"
         inkscape:connector-curvature="0"
         style="vector-effect:none;fill-rule:evenodd" />
    </g>
    <g
       transform="translate(16,16)"
       font-size="8.25"
       font-weight="400"
       font-style="normal"
       id="g12"
       style="font-style:normal;font-weight:400;font-size:8.25px;font-family:'MS Shell Dlg 2';fill:#ffffff;fill-opacity:1;stroke:#232323;stroke-width:0.56692898;stroke-linecap:square;stroke-linejoin:bevel;stroke-opacity:1" />
    <g
       transform="matrix(1.33333,0,0,1.33333,16,16)"
       font-size="8.25"
       font-weight="400"
       font-style="normal"
       id="g14"
       style="font-style:normal;font-weight:400;font-size:8.25px;font-family:'MS Shell Dlg 2';fill:#ffffff;fill-opacity:1;stroke:#232323;stroke-width:0.56692898;stroke-linecap:square;stroke-linejoin:bevel;stroke-opacity:1" />
    <g
       transform="matrix(0.0156394,0,0,0.0156394,11.4646,11.4646)"
       font-size="8.25"
       font-weight="400"
       font-style="normal"
       id="g18"
       style="font-style:normal;font-weight:400;font-size:8.25px;font-family:'MS Shell Dlg 2';fill:#000000;fill-opacity:1;stroke:none">
      <path
         d="m 403.404,434.67 c 28.344,-4.567 56.564,-34.117 56.564,-70.145 V 101.12 c 0,-37.188 -31.305,-71.319 -73.807,-71.319 l -90.566,-0.069 -91.257,0.069 c -42.503,0 -73.773,34.132 -73.773,71.319 v 263.405 c 0,36.027 28.187,65.577 56.53,70.145 l -85.002,127.505 h 49.066 L 211.94,473.06 h 83.241 0.068 0.069 83.24 l 60.781,89.115 h 49.066 L 403.404,434.67 M 247.358,56.891 c 0,-6.466 5.627,-11.887 12.094,-11.887 h 35.729 0.068 0.069 35.729 c 6.467,0 12.094,5.42 12.094,11.887 v 20.94 c 0,6.466 -5.319,12.024 -12.094,12.024 h -35.729 -0.069 -0.068 -35.729 c -6.774,0 -12.094,-5.558 -12.094,-12.024 v -20.94 m -44.574,339.355 c -17.866,0 -32.343,-14.478 -32.343,-32.342 0,-17.867 14.477,-32.344 32.343,-32.344 17.866,0 32.377,14.477 32.377,32.344 0,17.865 -14.512,32.342 -32.377,32.342 M 295.25,225.135 h -0.068 -88.39 c -20.324,0 -36.953,-13.979 -36.766,-36.766 v -47.408 c 0,-19.707 12.747,-36.903 36.766,-36.903 h 88.39 0.138 88.389 c 24.019,0 36.766,17.196 36.766,36.903 v 47.408 c 0.188,22.787 -16.442,36.766 -36.766,36.766 h -88.389 -0.07 m 59.364,138.769 c 0,-17.867 14.477,-32.344 32.342,-32.344 17.866,0 32.343,14.477 32.343,32.344 0,17.864 -14.477,32.342 -32.343,32.342 -17.865,0 -32.342,-14.477 -32.342,-32.342"
         id="path16"
         inkscape:connector-curvature="0"
         style="vector-effect:none;fill-rule:nonzero" />
    </g>
    <g
       transform="matrix(1.33333,0,0,1.33333,16,16)"
       font-size="8.25"
       font-weight="400"
       font-style="normal"
       id="g20"
       style="font-style:normal;font-weight:400;font-size:8.25px;font-family:'MS Shell Dlg 2';fill:#ffffff;fill-opacity:1;stroke:#232323;stroke-width:0.56692898;stroke-linecap:square;stroke-linejoin:bevel;stroke-opacity:1" />
    <g
       transform="translate(16,16)"
       font-size="8.25"
       font-weight="400"
       font-style="normal"
       id="g22"
       style="font-style:normal;font-weight:400;font-size:8.25px;font-family:'MS Shell Dlg 2';fill:#ffffff;fill-opacity:1;stroke:#232323;stroke-width:0.56692898;stroke-linecap:square;stroke-linejoin:bevel;stroke-opacity:1" />
    <g
       font-size="8.25"
       font-weight="400"
       font-style="normal"
       id="g24"
       style="font-style:normal;font-weight:400;font-size:8.25px;font-family:'MS Shell Dlg 2';fill:#ffffff;fill-opacity:1;stroke:#232323;stroke-width:0.56692898;stroke-linecap:square;stroke-linejoin:bevel;stroke-opacity:1" />
  </g>
</svg>
