<?xml version="1.0" encoding="UTF-8" standalone="no"?>
<svg
   xmlns:dc="http://purl.org/dc/elements/1.1/"
   xmlns:cc="http://creativecommons.org/ns#"
   xmlns:rdf="http://www.w3.org/1999/02/22-rdf-syntax-ns#"
   xmlns:svg="http://www.w3.org/2000/svg"
   xmlns="http://www.w3.org/2000/svg"
   xmlns:sodipodi="http://sodipodi.sourceforge.net/DTD/sodipodi-0.dtd"
   xmlns:inkscape="http://www.inkscape.org/namespaces/inkscape"
   width="4.2000103mm"
   height="4.2000103mm"
   viewBox="0 0 11.905529 11.905529"
   version="1.2"
   id="svg32"
   sodipodi:docname="estacao_ou_terminal_rodoviaria.svg"
   inkscape:version="0.92.4 (5da689c313, 2019-01-14)">
  <metadata
     id="metadata36">
    <rdf:RDF>
      <cc:Work
         rdf:about="">
        <dc:format>image/svg+xml</dc:format>
        <dc:type
           rdf:resource="http://purl.org/dc/dcmitype/StillImage" />
        <dc:title>Qt SVG Document</dc:title>
      </cc:Work>
    </rdf:RDF>
  </metadata>
  <sodipodi:namedview
     pagecolor="#ffffff"
     bordercolor="#666666"
     borderopacity="1"
     objecttolerance="10"
     gridtolerance="10"
     guidetolerance="10"
     inkscape:pageopacity="0"
     inkscape:pageshadow="2"
     inkscape:window-width="732"
     inkscape:window-height="480"
     id="namedview34"
     showgrid="false"
     fit-margin-top="0"
     fit-margin-left="0"
     fit-margin-right="0"
     fit-margin-bottom="0"
     inkscape:zoom="5.5312444"
     inkscape:cx="7.9370275"
     inkscape:cy="7.9370273"
     inkscape:window-x="0"
     inkscape:window-y="0"
     inkscape:window-maximized="0"
     inkscape:current-layer="svg32" />
  <title
     id="title2">Qt SVG Document</title>
  <desc
     id="desc4">Generated with Qt</desc>
  <defs
     id="defs6" />
  <g
     id="g30"
     style="fill:none;fill-rule:evenodd;stroke:#000000;stroke-width:1;stroke-linecap:square;stroke-linejoin:bevel"
     transform="translate(-10.047236,-10.047236)">
    <g
       font-size="8.25"
       font-weight="400"
       font-style="normal"
       id="g10"
       style="font-style:normal;font-weight:400;font-size:8.25px;font-family:'MS Shell Dlg 2';fill:#ffffff;fill-opacity:1;stroke:#232323;stroke-width:0.56692898;stroke-linecap:square;stroke-linejoin:bevel;stroke-opacity:1">
      <path
         d="M 10.3307,10.3307 H 21.6693 V 21.6693 H 10.3307 V 10.3307"
         id="path8"
         inkscape:connector-curvature="0"
         style="vector-effect:none;fill-rule:evenodd" />
    </g>
    <g
       transform="translate(16,16)"
       font-size="8.25"
       font-weight="400"
       font-style="normal"
       id="g12"
       style="font-style:normal;font-weight:400;font-size:8.25px;font-family:'MS Shell Dlg 2';fill:#ffffff;fill-opacity:1;stroke:#232323;stroke-width:0.56692898;stroke-linecap:square;stroke-linejoin:bevel;stroke-opacity:1" />
    <g
       transform="matrix(1.33333,0,0,1.33333,16,16)"
       font-size="8.25"
       font-weight="400"
       font-style="normal"
       id="g14"
       style="font-style:normal;font-weight:400;font-size:8.25px;font-family:'MS Shell Dlg 2';fill:#ffffff;fill-opacity:1;stroke:#232323;stroke-width:0.56692898;stroke-linecap:square;stroke-linejoin:bevel;stroke-opacity:1" />
    <g
       transform="matrix(0.014662,0,0,0.014662,11.748,11.748)"
       font-size="8.25"
       font-weight="400"
       font-style="normal"
       id="g18"
       style="font-style:normal;font-weight:400;font-size:8.25px;font-family:'MS Shell Dlg 2';fill:#000000;fill-opacity:1;stroke:none">
      <path
         d="m 290.625,34.563 c 0.676,0 1.379,0.026 2.063,0.031 0.688,-0.005 1.381,-0.031 2.063,-0.031 h -4.126"
         id="path16"
         inkscape:connector-curvature="0"
         style="vector-effect:none;fill-rule:nonzero" />
    </g>
    <g
       transform="matrix(0.014662,0,0,0.014662,11.748,11.748)"
       font-size="8.25"
       font-weight="400"
       font-style="normal"
       id="g22"
       style="font-style:normal;font-weight:400;font-size:8.25px;font-family:'MS Shell Dlg 2';fill:#000000;fill-opacity:1;stroke:none">
      <path
         d="M 484.625,111.469 C 478.887,82.775 460.517,71.291 432.969,59.813 405.808,48.496 340.714,34.972 292.688,34.594 244.663,34.974 179.596,48.497 152.438,59.813 124.891,71.291 106.52,82.775 100.782,111.469 L 80.125,270.563 V 489.75 h 35.594 v 34.375 c 0,41.913 61.313,41.913 61.313,0 V 489.75 h 113.25 0.344 117.719 v 34.375 c 0,41.913 61.344,41.913 61.344,0 V 489.75 h 35.594 V 270.563 L 484.625,111.469 M 205.25,74.75 h 85.375 89.531 c 17.218,0 17.218,25.813 0,25.813 H 290.437 205.25 c -17.218,0 -17.218,-25.813 0,-25.813 m -58.844,346.281 c -16.248,0 -29.438,-13.158 -29.438,-29.406 0,-16.248 13.19,-29.438 29.438,-29.438 16.248,0 29.406,13.189 29.406,29.438 0,16.249 -13.158,29.406 -29.406,29.406 M 290.625,287.313 H 134.563 c -15.279,0 -18.468,-10.972 -16.969,-22.031 l 16.094,-115.375 c 2.208,-14.018 6.938,-23.25 25.125,-23.25 h 131.625 136.125 c 18.188,0 22.948,9.232 25.156,23.25 l 16.094,115.375 c 1.499,11.059 -1.721,22.031 -17,22.031 H 290.625 M 439,421.031 c -16.248,0 -29.438,-13.158 -29.438,-29.406 0,-16.248 13.189,-29.438 29.438,-29.438 16.249,0 29.406,13.189 29.406,29.438 0,16.249 -13.158,29.406 -29.406,29.406"
         id="path20"
         inkscape:connector-curvature="0"
         style="vector-effect:none;fill-rule:nonzero" />
    </g>
    <g
       transform="matrix(1.33333,0,0,1.33333,16,16)"
       font-size="8.25"
       font-weight="400"
       font-style="normal"
       id="g24"
       style="font-style:normal;font-weight:400;font-size:8.25px;font-family:'MS Shell Dlg 2';fill:#ffffff;fill-opacity:1;stroke:#232323;stroke-width:0.56692898;stroke-linecap:square;stroke-linejoin:bevel;stroke-opacity:1" />
    <g
       transform="translate(16,16)"
       font-size="8.25"
       font-weight="400"
       font-style="normal"
       id="g26"
       style="font-style:normal;font-weight:400;font-size:8.25px;font-family:'MS Shell Dlg 2';fill:#ffffff;fill-opacity:1;stroke:#232323;stroke-width:0.56692898;stroke-linecap:square;stroke-linejoin:bevel;stroke-opacity:1" />
    <g
       font-size="8.25"
       font-weight="400"
       font-style="normal"
       id="g28"
       style="font-style:normal;font-weight:400;font-size:8.25px;font-family:'MS Shell Dlg 2';fill:#ffffff;fill-opacity:1;stroke:#232323;stroke-width:0.56692898;stroke-linecap:square;stroke-linejoin:bevel;stroke-opacity:1" />
  </g>
</svg>
