<?xml version="1.0" encoding="UTF-8" standalone="no"?>
<!-- Created with Inkscape (http://www.inkscape.org/) -->

<svg
   xmlns:dc="http://purl.org/dc/elements/1.1/"
   xmlns:cc="http://creativecommons.org/ns#"
   xmlns:rdf="http://www.w3.org/1999/02/22-rdf-syntax-ns#"
   xmlns:svg="http://www.w3.org/2000/svg"
   xmlns="http://www.w3.org/2000/svg"
   xmlns:sodipodi="http://sodipodi.sourceforge.net/DTD/sodipodi-0.dtd"
   xmlns:inkscape="http://www.inkscape.org/namespaces/inkscape"
   width="11.286506mm"
   height="3.6483805mm"
   viewBox="0 0 11.286506 3.6483803"
   version="1.1"
   id="svg22265"
   inkscape:version="0.92.4 (5da689c313, 2019-01-14)"
   sodipodi:docname="prefixo_de_estrada_estadual.svg">
  <title
     id="title22888">prefixo_de_estrada_estadual</title>
  <defs
     id="defs22259" />
  <sodipodi:namedview
     id="base"
     pagecolor="#ffffff"
     bordercolor="#666666"
     borderopacity="1.0"
     inkscape:pageopacity="0.0"
     inkscape:pageshadow="2"
     inkscape:zoom="7.919596"
     inkscape:cx="-7.7345138"
     inkscape:cy="-0.067327871"
     inkscape:document-units="mm"
     inkscape:current-layer="layer1"
     showgrid="false"
     inkscape:window-width="1920"
     inkscape:window-height="1017"
     inkscape:window-x="-8"
     inkscape:window-y="-8"
     inkscape:window-maximized="1"
     showguides="false"
     fit-margin-top="0"
     fit-margin-left="0"
     fit-margin-right="0"
     fit-margin-bottom="0" />
  <metadata
     id="metadata22262">
    <rdf:RDF>
      <cc:Work
         rdf:about="">
        <dc:format>image/svg+xml</dc:format>
        <dc:type
           rdf:resource="http://purl.org/dc/dcmitype/StillImage" />
        <dc:title>prefixo_de_estrada_estadual</dc:title>
      </cc:Work>
    </rdf:RDF>
  </metadata>
  <g
     inkscape:label="Layer 1"
     inkscape:groupmode="layer"
     id="layer1"
     transform="translate(-1.8567474,-293.32581)">
    <g
       style="font-style:normal;font-weight:400;font-size:130px;font-family:'MS Shell Dlg 2';fill:#ff0000;fill-opacity:1;stroke:#ff0000;stroke-width:1;stroke-linecap:square;stroke-linejoin:miter;stroke-miterlimit:2;stroke-opacity:1"
       stroke-miterlimit="2"
       font-size="130"
       font-style="normal"
       transform="matrix(0.01590408,0,0,0.02128371,1.8646994,294.89866)"
       font-weight="400"
       id="g13834">
      <path
         style="vector-effect:non-scaling-stroke;fill-rule:evenodd"
         inkscape:connector-curvature="0"
         d="M 0,0 H 708.661 V 23.622 H 0 V 0"
         id="path13832" />
    </g>
    <g
       style="font-style:normal;font-weight:400;font-size:130px;font-family:'MS Shell Dlg 2';fill:#ffffff;fill-opacity:1;stroke:#000000;stroke-width:6.14172983;stroke-linecap:square;stroke-linejoin:miter;stroke-miterlimit:2;stroke-opacity:1"
       stroke-miterlimit="2"
       font-size="130"
       font-style="normal"
       transform="matrix(0.02728764,0,0,0.02728764,5.7593554,293.40961)"
       font-weight="400"
       id="g13844">
      <path
         style="vector-effect:none;fill-rule:evenodd"
         inkscape:connector-curvature="0"
         d="m 127.559,63.7795 -0.005,0.8244 -0.016,0.8218 -0.026,0.8193 -0.036,0.8166 -0.046,0.814 -0.057,0.8111 -0.067,0.8084 -0.076,0.8055 -0.087,0.8026 -0.096,0.7995 -0.107,0.7965 -0.116,0.7933 -0.126,0.7902 -0.135,0.7869 -0.145,0.7835 -0.155,0.7802 -0.164,0.7768 -0.173,0.7732 -0.183,0.7697 -0.192,0.766 -0.201,0.7624 -0.21,0.7586 -0.22,0.7547 -0.228,0.7509 -0.238,0.7469 -0.246,0.743 -0.255,0.7388 -0.264,0.7348 -0.273,0.7305 -0.281,0.7263 -0.29,0.7219 -0.298,0.7176 -0.307,0.7131 -0.315,0.7086 -0.324,0.7041 -0.331,0.6994 -0.34,0.6947 -0.348,0.69 -0.357,0.6851 -0.364,0.6802 -0.372,0.6753 -0.38,0.6703 -0.388,0.6652 -0.396,0.6601 -0.403,0.6549 -0.411,0.6496 -0.418,0.6443 -0.426,0.639 -0.434,0.6337 -0.441,0.628 -0.448,0.622 -0.456,0.617 -0.462,0.611 -0.47,0.605 -0.477,0.6 -0.484,0.593 -0.491,0.588 -0.498,0.581 -0.504,0.576 -0.512,0.569 -0.518,0.564 -0.524,0.557 -0.532,0.55 -0.538,0.544 -0.544,0.538 -0.55,0.532 -0.557,0.524 -0.564,0.518 -0.569,0.512 -0.576,0.504 -0.581,0.498 -0.588,0.491 -0.593,0.484 -0.6,0.477 -0.605,0.47 -0.611,0.462 -0.617,0.456 -0.622,0.448 -0.628,0.441 -0.6337,0.434 -0.639,0.426 -0.6443,0.418 -0.6496,0.411 -0.6549,0.403 -0.6601,0.396 -0.6652,0.388 -0.6703,0.38 -0.6753,0.372 -0.6802,0.364 -0.6851,0.357 -0.69,0.348 -0.6947,0.34 -0.6994,0.331 -0.7041,0.324 -0.7086,0.315 -0.7131,0.307 -0.7176,0.298 -0.7219,0.29 -0.7263,0.281 -0.7305,0.273 -0.7348,0.264 -0.7388,0.255 -0.743,0.246 -0.7469,0.238 -0.7509,0.228 -0.7547,0.22 -0.7586,0.21 -0.7624,0.201 -0.766,0.192 -0.7697,0.183 -0.7732,0.173 -0.7768,0.164 -0.7802,0.155 -0.7835,0.145 -0.7869,0.135 -0.7902,0.126 -0.7933,0.116 -0.7965,0.107 -0.7995,0.096 -0.8026,0.087 -0.8055,0.076 -0.8084,0.067 -0.8111,0.057 -0.814,0.046 -0.8166,0.036 -0.8193,0.026 -0.8218,0.016 -0.8244,0.005 -0.8243,-0.005 -0.8219,-0.016 -0.8192,-0.026 -0.8167,-0.036 -0.8139,-0.046 -0.8112,-0.057 -0.8084,-0.067 -0.8055,-0.076 -0.8025,-0.087 -0.7995,-0.096 -0.7965,-0.107 -0.7934,-0.116 -0.7901,-0.126 -0.7869,-0.135 -0.7836,-0.145 -0.7802,-0.155 -0.7767,-0.164 -0.7733,-0.173 -0.7696,-0.183 -0.7661,-0.192 -0.7623,-0.201 -0.7586,-0.21 -0.7548,-0.22 -0.7509,-0.228 -0.7469,-0.238 -0.7429,-0.246 -0.7389,-0.255 -0.7347,-0.264 -0.7305,-0.273 -0.7263,-0.281 -0.722,-0.29 -0.7175,-0.298 -0.7132,-0.307 -0.7086,-0.315 -0.704,-0.324 -0.6994,-0.331 -0.6947,-0.34 -0.69,-0.348 -0.6851,-0.357 -0.6803,-0.364 -0.6753,-0.372 -0.6703,-0.38 -0.6652,-0.388 -0.6601,-0.396 -0.6549,-0.403 -0.6496,-0.411 -0.6443,-0.418 -0.6389,-0.426 -0.6335,-0.434 -0.6279,-0.441 -0.6224,-0.448 -0.6168,-0.456 -0.611,-0.462 -0.6053,-0.47 -0.5995,-0.477 -0.5936,-0.484 -0.5876,-0.491 -0.5816,-0.498 -0.5756,-0.504 -0.5694,-0.512 -0.5632,-0.518 -0.5569,-0.524 -0.5507,-0.532 -0.5442,-0.538 -0.5378,-0.544 -0.5313,-0.55 -0.5247,-0.557 -0.518,-0.564 -0.5114,-0.569 -0.5046,-0.576 -0.4978,-0.581 -0.4909,-0.588 -0.4839,-0.593 -0.4769,-0.6 -0.4699,-0.605 -0.4627,-0.611 -0.4555,-0.617 -0.4482,-0.622 -0.4409,-0.628 -0.4336,-0.6337 -0.426,-0.639 L 10.0479,98.156 9.63692,97.5064 9.23358,96.8515 8.83793,96.1914 8.45006,95.5262 8.07001,94.8559 7.69784,94.1806 7.33364,93.5004 6.97744,92.8153 6.62933,92.1253 6.28935,91.4306 5.95758,90.7312 5.63408,90.0271 5.3189,89.3185 5.01211,88.6054 4.71378,87.8878 4.42396,87.1659 4.14272,86.4396 3.87012,85.7091 3.60623,84.9743 3.3511,84.2355 3.10481,83.4925 2.8674,82.7456 2.63895,81.9947 2.41952,81.24 2.20916,80.4814 2.00795,79.719 1.81594,78.953 1.6332,78.1833 1.45979,77.4101 1.29577,76.6333 1.14121,75.8531 0.996167,75.0696 0.860704,74.2827 0.734884,73.4925 0.618769,72.6992 0.512423,71.9027 0.415908,71.1032 0.329287,70.3006 0.252621,69.4951 0.185975,68.6867 0.12941,67.8756 0.0829895,67.0616 0.0467755,66.245 0.0208309,65.4257 0.00521815,64.6039 0,63.7795 0.00521815,62.9552 0.0208309,62.1333 0.0467755,61.3141 0.0829895,60.4974 0.12941,59.6835 0.185975,58.8723 0.252621,58.0639 0.329287,57.2584 0.415908,56.4559 0.512423,55.6564 0.618769,54.8599 0.734884,54.0665 0.860704,53.2764 0.996167,52.4895 1.14121,51.7059 1.29577,50.9257 1.45979,50.149 1.6332,49.3757 1.81594,48.6061 2.00795,47.84 2.20916,47.0777 2.41952,46.3191 2.63895,45.5643 2.8674,44.8134 3.10481,44.0665 3.3511,43.3236 3.60623,42.5847 3.87012,41.85 l 0.2726,-0.7305 0.28124,-0.7263 0.28982,-0.722 0.29833,-0.7175 0.30679,-0.7132 0.31518,-0.7086 0.3235,-0.704 0.33177,-0.6994 0.33998,-0.6947 0.34811,-0.69 0.3562,-0.6851 0.3642,-0.6803 0.37217,-0.6753 0.38005,-0.6703 0.38787,-0.6652 0.39565,-0.6601 0.40334,-0.6549 0.41098,-0.6496 0.4186,-0.6443 0.426,-0.6389 0.4336,-0.6335 0.4409,-0.6279 0.4482,-0.6224 0.4555,-0.6168 0.4627,-0.611 0.4699,-0.6053 0.4769,-0.5995 0.4839,-0.5936 0.4909,-0.5876 0.4978,-0.5816 0.5046,-0.5756 0.5114,-0.5694 0.518,-0.5632 0.5247,-0.5569 0.5313,-0.5507 0.5378,-0.5442 0.5442,-0.5378 0.5507,-0.5313 0.5569,-0.5247 0.5632,-0.518 0.5694,-0.5114 0.5756,-0.5046 0.5816,-0.4978 0.5876,-0.4909 0.5936,-0.4839 0.5995,-0.4769 0.6053,-0.4699 0.611,-0.4627 0.6168,-0.4555 0.6224,-0.4482 0.6279,-0.4409 0.6335,-0.4336 0.6389,-0.426 0.6443,-0.4186 0.6496,-0.41098 0.6549,-0.40334 0.6601,-0.39565 0.6652,-0.38787 0.6703,-0.38005 0.6753,-0.37217 0.6803,-0.3642 0.6851,-0.3562 0.69,-0.34811 0.6947,-0.33998 0.6994,-0.33177 0.704,-0.3235 L 38.2405,5.3189 38.9537,5.01211 39.6712,4.71378 40.3932,4.42396 41.1195,4.14272 41.85,3.87012 42.5847,3.60623 43.3236,3.3511 44.0665,3.10481 44.8134,2.8674 45.5643,2.63895 46.3191,2.41952 47.0777,2.20916 47.84,2.00795 48.6061,1.81594 49.3757,1.6332 50.149,1.45979 50.9257,1.29577 51.7059,1.14121 52.4895,0.996167 53.2764,0.860704 54.0665,0.734884 54.8599,0.618769 55.6564,0.512423 56.4559,0.415908 57.2584,0.329287 58.0639,0.252621 58.8723,0.185975 59.6835,0.12941 60.4974,0.0829895 61.3141,0.0467755 62.1333,0.0208309 62.9552,0.00521815 63.7795,0 l 0.8244,0.00521815 0.8218,0.01561275 0.8193,0.0259446 0.8166,0.036214 0.814,0.0464205 0.8111,0.056565 0.8084,0.066646 0.8055,0.076666 0.8026,0.086621 0.7995,0.096515 0.7965,0.106346 0.7933,0.116115 0.7902,0.12582 0.7869,0.135463 0.7835,0.145043 0.7802,0.15456 0.7768,0.16402 0.7732,0.17341 0.7697,0.18274 0.766,0.19201 0.7624,0.20121 0.7586,0.21036 0.7547,0.21943 0.7509,0.22845 0.7469,0.23741 0.743,0.24629 0.7388,0.25513 0.7348,0.26389 0.7305,0.2726 0.7263,0.28124 0.7219,0.28982 0.7176,0.29833 0.7131,0.30679 0.7086,0.31518 0.7041,0.3235 0.6994,0.33177 0.6947,0.33998 0.69,0.34811 0.6851,0.3562 0.6802,0.3642 0.6753,0.37217 0.6703,0.38005 0.6652,0.38787 0.6601,0.39565 0.6549,0.40334 0.6496,0.41098 0.6443,0.4186 0.639,0.426 0.6337,0.4336 0.628,0.4409 0.622,0.4482 0.617,0.4555 0.611,0.4627 0.605,0.4699 0.6,0.4769 0.593,0.4839 0.588,0.4909 0.581,0.4978 0.576,0.5046 0.569,0.5114 0.564,0.518 0.557,0.5247 0.55,0.5313 0.544,0.5378 0.538,0.5442 0.532,0.5507 0.524,0.5569 0.518,0.5632 0.512,0.5694 0.504,0.5756 0.498,0.5816 0.491,0.5876 0.484,0.5936 0.477,0.5995 0.47,0.6053 0.462,0.611 0.456,0.6168 0.448,0.6224 0.441,0.6279 0.434,0.6335 0.426,0.6389 0.418,0.6443 0.411,0.6496 0.403,0.6549 0.396,0.6601 0.388,0.6652 0.38,0.6703 0.372,0.6753 0.364,0.6803 0.357,0.6851 0.348,0.69 0.34,0.6947 0.331,0.6994 0.324,0.704 0.315,0.7086 0.307,0.7132 0.298,0.7175 0.29,0.722 0.281,0.7263 0.273,0.7305 0.264,0.7347 0.255,0.7389 0.246,0.7429 0.238,0.7469 0.228,0.7509 0.22,0.7548 0.21,0.7586 0.201,0.7623 0.192,0.7661 0.183,0.7696 0.173,0.7733 0.164,0.7767 0.155,0.7802 0.145,0.7836 0.135,0.7869 0.126,0.7901 0.116,0.7934 0.107,0.7965 0.096,0.7995 0.087,0.8025 0.076,0.8055 0.067,0.8084 0.057,0.8112 0.046,0.8139 0.036,0.8167 0.026,0.8192 0.016,0.8219 0.005,0.8243"
         id="path13842" />
    </g>
    <g
       style="font-style:normal;font-weight:400;font-size:14px;font-family:Arial;fill:none;stroke:#000000;stroke-width:1;stroke-linecap:square;stroke-linejoin:bevel;stroke-opacity:1"
       font-size="14"
       font-style="normal"
       transform="matrix(0.09999931,0,0,0.09999931,6.2336399,294.286)"
       font-weight="400"
       id="g13858">
      <text
         style="font-style:normal;font-weight:400;font-size:14px;font-family:Arial;fill:#000000;fill-opacity:1;stroke:none"
         xml:space="preserve"
         font-size="14"
         font-style="normal"
         x="0.65625"
         font-weight="400"
         y="13.625"
         id="text13856">163</text>
    </g>
  </g>
</svg>
