<?xml version="1.0" encoding="UTF-8" standalone="no"?>
<!-- Created with Inkscape (http://www.inkscape.org/) -->

<svg
   xmlns:dc="http://purl.org/dc/elements/1.1/"
   xmlns:cc="http://creativecommons.org/ns#"
   xmlns:rdf="http://www.w3.org/1999/02/22-rdf-syntax-ns#"
   xmlns:svg="http://www.w3.org/2000/svg"
   xmlns="http://www.w3.org/2000/svg"
   xmlns:sodipodi="http://sodipodi.sourceforge.net/DTD/sodipodi-0.dtd"
   xmlns:inkscape="http://www.inkscape.org/namespaces/inkscape"
   width="11.284504mm"
   height="3.6670299mm"
   viewBox="0 0 11.284504 3.6670297"
   version="1.1"
   id="svg22265"
   inkscape:version="0.92.4 (5da689c313, 2019-01-14)"
   sodipodi:docname="prefixo_de_estrada_federal.svg">
  <title
     id="title22888">prefixo_de_estrada_federal</title>
  <defs
     id="defs22259" />
  <sodipodi:namedview
     id="base"
     pagecolor="#ffffff"
     bordercolor="#666666"
     borderopacity="1.0"
     inkscape:pageopacity="0.0"
     inkscape:pageshadow="2"
     inkscape:zoom="7.919596"
     inkscape:cx="-5.9574862"
     inkscape:cy="3.3183703"
     inkscape:document-units="mm"
     inkscape:current-layer="layer1"
     showgrid="false"
     inkscape:window-width="1920"
     inkscape:window-height="1017"
     inkscape:window-x="-8"
     inkscape:window-y="-8"
     inkscape:window-maximized="1"
     fit-margin-top="0"
     fit-margin-left="0"
     fit-margin-right="0"
     fit-margin-bottom="0" />
  <metadata
     id="metadata22262">
    <rdf:RDF>
      <cc:Work
         rdf:about="">
        <dc:format>image/svg+xml</dc:format>
        <dc:type
           rdf:resource="http://purl.org/dc/dcmitype/StillImage" />
        <dc:title>prefixo_de_estrada_federal</dc:title>
      </cc:Work>
    </rdf:RDF>
  </metadata>
  <g
     inkscape:label="Layer 1"
     inkscape:groupmode="layer"
     id="layer1"
     transform="translate(-1.857748,-293.31649)">
    <g
       style="font-style:normal;font-weight:400;font-size:130px;font-family:'MS Shell Dlg 2';fill:#ff0000;fill-opacity:1;stroke:#ff0000;stroke-width:1;stroke-linecap:square;stroke-linejoin:miter;stroke-miterlimit:2;stroke-opacity:1"
       stroke-miterlimit="2"
       font-size="130"
       font-style="normal"
       transform="matrix(0.01590126,0,0,0.02128378,1.8656986,294.89428)"
       font-weight="400"
       id="g13872">
      <path
         style="vector-effect:non-scaling-stroke;fill-rule:evenodd"
         inkscape:connector-curvature="0"
         d="M 0,0 H 708.661 V 23.622 H 0 V 0"
         id="path13870" />
    </g>
    <g
       style="font-style:normal;font-weight:400;font-size:130px;font-family:'MS Shell Dlg 2';fill:#ffffff;fill-opacity:1;stroke:#000000;stroke-width:6.14172983;stroke-linecap:square;stroke-linejoin:miter;stroke-miterlimit:2;stroke-opacity:1"
       stroke-miterlimit="2"
       font-size="130"
       font-style="normal"
       transform="matrix(0.02116652,0,0,0.02116652,5.7743231,293.39409)"
       font-weight="400"
       id="g13882">
      <path
         style="vector-effect:none;fill-rule:evenodd"
         inkscape:connector-curvature="0"
         d="M 25.6512,9.81439 39.4806,13.3833 50.6334,13.1602 57.994,12.0449 68.0315,8.47606 81.4148,0 l 14.2753,9.59131 11.3759,3.34579 14.052,1.1153 17.175,-4.015 19.183,18.7366 -6.914,8.9222 -5.131,11.8218 -1.784,10.4834 0.223,13.3833 2.007,12.2679 4.015,10.9299 4.908,10.0375 5.799,10.037 2.454,8.477 -0.223,8.029 -2.454,6.915 -6.245,7.138 -6.915,4.238 -7.807,0.446 -17.398,-1.115 -6.915,-0.893 -12.491,1.116 -5.3535,2.899 -5.5762,3.123 -9.5915,8.476 -9.591,-8.253 -8.0301,-5.13 -8.0301,-1.785 H 45.28 l -12.045,1.339 -12.714,0.669 -8.4761,-2.677 L 4.46108,142.086 0.892214,134.502 0,128.256 1.11527,121.341 6.02244,112.419 13.1602,97.0285 17.6213,84.3146 19.4057,71.6003 18.9596,55.9866 18.0674,49.518 14.4985,41.0419 4.96294,27.2683 25.6512,9.81439"
         id="path13880" />
    </g>
    <g
       style="font-style:normal;font-weight:400;font-size:14px;font-family:Arial;fill:none;stroke:#000000;stroke-width:1;stroke-linecap:square;stroke-linejoin:bevel;stroke-opacity:1"
       font-size="14"
       font-style="normal"
       transform="matrix(0.09999931,0,0,0.09999931,6.2336398,294.32564)"
       font-weight="400"
       id="g13896">
      <text
         style="font-style:normal;font-weight:400;font-size:14px;font-family:Arial;fill:#000000;fill-opacity:1;stroke:none"
         xml:space="preserve"
         font-size="14"
         font-style="normal"
         x="1.15625"
         font-weight="400"
         y="13.1875"
         id="text13894">116</text>
    </g>
  </g>
</svg>
