<?xml version="1.0" encoding="UTF-8"?>
<!DOCTYPE svg PUBLIC "-//W3C//DTD SVG 1.1//EN" "http://www.w3.org/Graphics/SVG/1.1/DTD/svg11.dtd">
<!-- Creator: CorelDRAW 2017 -->
<svg xmlns="http://www.w3.org/2000/svg" xml:space="preserve" width="9mm" height="12.4mm" version="1.1" style="shape-rendering:geometricPrecision; text-rendering:geometricPrecision; image-rendering:optimizeQuality; fill-rule:evenodd; clip-rule:evenodd"
viewBox="0 0 900 1240"
 xmlns:xlink="http://www.w3.org/1999/xlink">
 <defs>
  <style type="text/css">
   <![CDATA[
    .str0 {stroke:#FFCC00;stroke-width:25.99}
    .str2 {stroke:#FE0000;stroke-width:16}
    .str5 {stroke:#D72B17;stroke-width:50}
    .str6 {stroke:#FE0000;stroke-width:25}
    .str1 {stroke:#FFCC00;stroke-width:20}
    .str3 {stroke:#FE0000;stroke-width:15}
    .str4 {stroke:#FE0000;stroke-width:7.62}
    .fil2 {fill:none}
    .fil0 {fill:#00CCFF}
    .fil1 {fill:#FE0000}
    .fil4 {fill:#FE0000}
    .fil5 {fill:#FEFEFE}
    .fil3 {fill:white}
   ]]>
  </style>
 </defs>
 <g id="ESCUDO">
  <metadata id="CorelCorpID_0Corel-Layer"/>
  <polygon class="fil0" points="14,273 886,273 886,147 14,147 "/>
  <path class="fil1" d="M14 147l873 0 0 -134 -872 0 0 134zm873 126l-873 0 0 519c2,36 4,71 13,107 8,36 23,71 42,104 18,33 41,63 65,88 24,25 51,46 82,66 32,20 70,40 110,52 78,23 173,23 251,0 40,-12 78,-32 110,-52 32,-20 58,-41 82,-66 24,-25 46,-55 65,-88 18,-33 33,-68 42,-104 8,-36 11,-71 13,-107l0 -519zm-845 473l409 -447 409 447 -409 449 -409 -449z"/>
  <path class="fil2 str0" d="M324 1209c-40,-12 -78,-32 -110,-52 -32,-20 -58,-41 -82,-66 -24,-25 -46,-55 -65,-88 -18,-33 -33,-68 -42,-104 -8,-36 -11,-71 -13,-107l1 -779 872 0 1 779c-2,36 -4,71 -13,107 -8,36 -23,71 -42,104 -18,33 -41,63 -65,88 -24,25 -51,46 -82,66 -32,20 -70,40 -110,52 -78,23 -173,23 -251,0z"/>
  <polygon class="fil3 str1" points="450,1195 41,746 450,299 859,746 "/>
  <path class="fil2 str1" d="M886 273l-873 0m0 -126l873 0"/>
 </g>
 <g id="GLOBO">
  <metadata id="CorelCorpID_1Corel-Layer"/>
  <g id="_2343774461248">
   <g>
    <path class="fil4" d="M486 549l1 -38c-12,-2 -24,-3 -37,-3 -4,0 -8,0 -11,0l-2 38c4,0 9,0 13,0 12,0 24,1 35,3z"/>
    <path class="fil4" d="M400 552l-15 -36c-18,5 -35,12 -51,20l15 35c16,-9 32,-15 50,-20z"/>
    <path class="fil4" d="M321 592l-28 -26c-13,11 -24,23 -34,36l28 26c10,-13 22,-25 35,-36z"/>
    <path class="fil4" d="M250 705c4,-16 9,-31 16,-46l-36 -13c-7,14 -12,30 -16,46l36 13z"/>
    <path class="fil4" d="M248 783c-2,-11 -3,-22 -3,-33 0,-6 0,-12 1,-17l-39 2c0,5 -1,10 -1,16 0,12 1,23 2,34l39 -1z"/>
    <path class="fil4" d="M276 856c-9,-14 -16,-30 -21,-46l-35 16c5,16 12,31 21,46l35 -16z"/>
    <path class="fil4" d="M326 912c-13,-10 -25,-21 -35,-34l-27 27c10,12 22,24 35,34l27 -27z"/>
    <path class="fil4" d="M397 946c-17,-5 -34,-11 -49,-20l-15 35c15,9 32,15 49,20l15 -35z"/>
    <path class="fil4" d="M472 952c-7,1 -14,1 -21,1 -10,0 -20,-1 -30,-2l-2 38c10,1 21,2 32,2 7,0 13,0 20,-1l1 -38z"/>
    <path class="fil4" d="M547 930c-14,7 -29,13 -45,17l14 36c16,-4 31,-10 45,-17l-14 -36z"/>
    <path class="fil4" d="M609 880c-11,13 -24,25 -38,35l26 28c15,-11 28,-23 40,-37l-27 -27z"/>
    <path class="fil4" d="M645 815c-6,16 -13,32 -22,46l35 17c9,-14 17,-30 23,-46l-35 -17z"/>
    <path class="fil4" d="M694 742l-39 -3c0,3 0,7 0,10 0,14 -1,28 -4,41l39 3c3,-14 4,-29 4,-44 0,-3 0,-5 0,-7z"/>
    <path class="fil4" d="M674 652l-37 12c7,15 13,32 16,49l37 -12c-4,-17 -9,-33 -16,-49z"/>
    <path class="fil4" d="M565 580l17 -34c-15,-9 -30,-17 -47,-23l-17 35c17,6 33,14 47,23z"/>
    <path class="fil4" d="M618 574l-28 26c12,11 23,24 33,38l30 -24c-10,-15 -22,-28 -35,-41z"/>
    <ellipse class="fil2 str2" cx="451" cy="750" rx="205" ry="204"/>
   </g>
   <g>
    <line class="fil2 str3" x1="450" y1="586" x2="452" y2= "914" />
    <line class="fil2 str3" x1="282" y1="745" x2="619" y2= "745" />
    <line class="fil2 str4" x1="375" y1="646" x2="526" y2= "646" />
    <line class="fil2 str4" x1="384" y1="850" x2="517" y2= "850" />
    <line class="fil2 str4" x1="337" y1="801" x2="566" y2= "801" />
    <line class="fil2 str4" x1="333" y1="698" x2="568" y2= "698" />
    <path class="fil2 str4" d="M450 646c-13,6 -26,11 -34,28 -9,16 -13,44 -13,73 0,29 4,60 13,77 9,18 22,22 36,26"/>
    <path class="fil2 str4" d="M454 646c13,6 26,11 34,28 9,16 13,44 13,73 0,29 -4,60 -13,77 -9,18 -22,22 -36,26"/>
    <path class="fil2 str4" d="M451 850c-16,-1 -32,-2 -46,-11 -14,-9 -26,-25 -34,-41 -8,-17 -11,-34 -11,-51 0,-17 3,-33 11,-49 8,-16 23,-32 36,-41 14,-9 28,-10 41,-11"/>
    <path class="fil2 str4" d="M452 850c16,-1 32,-2 46,-11 14,-9 26,-25 34,-41 8,-17 11,-34 11,-51 0,-17 -3,-33 -11,-49 -8,-16 -23,-32 -36,-41 -14,-9 -28,-10 -41,-11"/>
    <line class="fil2 str4" x1="450" y1="586" x2="452" y2= "914" />
    <line class="fil2 str4" x1="282" y1="745" x2="619" y2= "745" />
    <line class="fil2 str5" x1="351" y1="669" x2="545" y2= "828" />
    <line class="fil2 str6" x1="351" y1="669" x2="545" y2= "828" />
    <ellipse class="fil2 str4" cx="450" cy="745" rx="127" ry="123"/>
    <polygon class="fil1" points="255,746 308,782 308,708 "/>
    <polygon class="fil1" points="646,746 593,782 593,708 "/>
    <polygon class="fil1" points="450,559 487,612 412,612 "/>
    <polygon class="fil1" points="451,940 414,887 489,887 "/>
   </g>
  </g>
 </g>
 <g id="DSG">
  <metadata id="CorelCorpID_2Corel-Layer"/>
  <g id="_2343774458144">
   <path class="fil5" d="M703 76c-1,0 0,0 -1,-1 -1,-1 -3,-3 -7,-5 -3,-2 -6,-3 -10,-4 -34,-11 -74,9 -89,42 -19,42 -1,92 38,110 20,9 47,10 65,-4 3,-2 5,-4 8,-6 3,-2 5,-6 7,-7l0 20 32 0 0 -57 14 0 0 -28 -77 0 0 28 19 0c-2,8 -10,16 -16,19 -18,11 -56,3 -57,-38 -2,-46 45,-57 65,-36 4,4 5,10 7,10l37 0 0 -53 -35 0 0 11c-1,-1 -1,-1 -2,-2z"/>
   <path class="fil5" d="M272 160c-2,7 -5,14 -10,19 -3,3 -2,3 -10,7 -10,5 -27,6 -39,6 -1,-6 0,-92 0,-94 3,0 16,-1 18,0 7,-1 16,3 22,5 13,6 19,19 20,33 2,14 -1,16 -1,24zm-114 -63l15 0 0 95c-3,0 -13,0 -15,0l0 30c4,1 50,0 58,0 25,0 53,1 72,-16 4,-4 1,0 5,-5 2,-2 1,0 4,-3l5 -7c17,-24 16,-71 0,-92 -6,-8 -5,-8 -14,-15 -1,-1 -1,-1 -2,-1 -5,-4 -11,-8 -17,-10 -17,-6 -35,-5 -54,-5 -9,0 -54,-1 -59,0l0 30z"/>
   <path class="fil5" d="M424 157c10,4 23,5 34,7 3,1 5,1 8,2 9,4 11,12 7,19 -5,8 -20,9 -30,3 -8,-5 -15,-12 -20,-20l-35 0 0 52 33 0 -1 -16c2,2 6,7 14,12 19,11 44,11 61,0 17,-11 25,-34 20,-54 -2,-10 -5,-11 -8,-17 -2,-1 -4,-4 -6,-6 -21,-17 -51,-14 -65,-22 -13,-8 -6,-26 12,-24 8,1 13,5 17,8 2,2 4,4 6,7 1,1 4,6 5,7l32 0 0 -48 -32 0 0 14c-1,-1 -3,-3 -4,-4 -3,-3 -9,-7 -13,-9 -21,-10 -50,-2 -63,18 -8,12 -11,31 -4,47 3,7 8,12 13,16 4,3 13,8 20,9z"/>
  </g>
 </g>
</svg>
