<?xml version="1.0" encoding="UTF-8" standalone="no"?>
<svg
   xmlns:dc="http://purl.org/dc/elements/1.1/"
   xmlns:cc="http://creativecommons.org/ns#"
   xmlns:rdf="http://www.w3.org/1999/02/22-rdf-syntax-ns#"
   xmlns:svg="http://www.w3.org/2000/svg"
   xmlns="http://www.w3.org/2000/svg"
   xmlns:sodipodi="http://sodipodi.sourceforge.net/DTD/sodipodi-0.dtd"
   xmlns:inkscape="http://www.inkscape.org/namespaces/inkscape"
   width="3.9349337mm"
   height="4.2801147mm"
   viewBox="0 0 11.154131 12.132596"
   version="1.2"
   id="svg34"
   sodipodi:docname="edificacao_policial.svg"
   inkscape:version="0.92.4 (5da689c313, 2019-01-14)">
  <metadata
     id="metadata38">
    <rdf:RDF>
      <cc:Work
         rdf:about="">
        <dc:format>image/svg+xml</dc:format>
        <dc:type
           rdf:resource="http://purl.org/dc/dcmitype/StillImage" />
        <dc:title>Qt SVG Document</dc:title>
      </cc:Work>
    </rdf:RDF>
  </metadata>
  <sodipodi:namedview
     pagecolor="#ffffff"
     bordercolor="#666666"
     borderopacity="1"
     objecttolerance="10"
     gridtolerance="10"
     guidetolerance="10"
     inkscape:pageopacity="0"
     inkscape:pageshadow="2"
     inkscape:window-width="732"
     inkscape:window-height="480"
     id="namedview36"
     showgrid="false"
     fit-margin-top="0"
     fit-margin-left="0"
     fit-margin-right="0"
     fit-margin-bottom="0"
     inkscape:zoom="5.5312444"
     inkscape:cx="7.3085939"
     inkscape:cy="8.0216319"
     inkscape:window-x="0"
     inkscape:window-y="0"
     inkscape:window-maximized="0"
     inkscape:current-layer="svg34" />
  <title
     id="title2">Qt SVG Document</title>
  <desc
     id="desc4">Generated with Qt</desc>
  <defs
     id="defs6" />
  <g
     id="g32"
     style="fill:none;fill-rule:evenodd;stroke:#000000;stroke-width:1;stroke-linecap:square;stroke-linejoin:bevel"
     transform="translate(-10.51856,-9.8836219)">
    <g
       transform="translate(16,16)"
       font-size="8.25"
       font-weight="400"
       font-style="normal"
       id="g8"
       style="font-style:normal;font-weight:400;font-size:8.25px;font-family:'MS Shell Dlg 2';fill:none;stroke:#000000;stroke-width:1;stroke-linecap:square;stroke-linejoin:bevel;stroke-opacity:1" />
    <g
       transform="matrix(1.33333,0,0,1.33333,16,16)"
       font-size="8.25"
       font-weight="400"
       font-style="normal"
       id="g10"
       style="font-style:normal;font-weight:400;font-size:8.25px;font-family:'MS Shell Dlg 2';fill:none;stroke:#000000;stroke-width:1;stroke-linecap:square;stroke-linejoin:bevel;stroke-opacity:1" />
    <g
       transform="matrix(0.0205267,0,0,0.0205267,10.0472,10.0472)"
       font-size="8.25"
       font-weight="400"
       font-style="normal"
       id="g14"
       style="font-style:normal;font-weight:400;font-size:8.25px;font-family:'MS Shell Dlg 2';fill:#ffffff;fill-opacity:1;stroke:none">
      <path
         d="m 299.7,571.284 c 93.761,-64.756 251.443,-76.337 252.842,-224.323 0.668,-66.356 -38.82,-87.323 -52.508,-169.35 -6.26,-37.508 27.77,-106.881 27.77,-106.881 L 462.426,21.444 C 423.251,46.248 349.659,61.148 287.823,10.22 228.102,63.543 153.961,51.385 113.809,28.054 L 50.481,79.729 c 0,0 36.818,68.059 32.086,105.771 -10.349,82.471 -48.956,104.888 -45.596,171.17 7.403,147.822 165.438,153.543 261.755,214.771"
         id="path12"
         inkscape:connector-curvature="0"
         style="vector-effect:none;fill-rule:nonzero" />
    </g>
    <g
       stroke-miterlimit="4"
       transform="matrix(0.0205267,0,0,0.0205267,10.0472,10.0472)"
       font-size="8.25"
       font-weight="400"
       font-style="normal"
       id="g18"
       style="font-style:normal;font-weight:400;font-size:8.25px;font-family:'MS Shell Dlg 2';fill:none;stroke:#000000;stroke-width:27.61899948;stroke-linecap:butt;stroke-linejoin:miter;stroke-miterlimit:4;stroke-opacity:1">
      <path
         d="m 299.7,571.284 c 93.761,-64.756 251.443,-76.337 252.842,-224.323 0.668,-66.356 -38.82,-87.323 -52.508,-169.35 -6.26,-37.508 27.77,-106.881 27.77,-106.881 L 462.426,21.444 C 423.251,46.248 349.659,61.148 287.823,10.22 228.102,63.543 153.961,51.385 113.809,28.054 L 50.481,79.729 c 0,0 36.818,68.059 32.086,105.771 -10.349,82.471 -48.956,104.888 -45.596,171.17 7.403,147.822 165.438,153.543 261.755,214.771"
         id="path16"
         inkscape:connector-curvature="0"
         style="vector-effect:none;fill-rule:nonzero" />
    </g>
    <g
       transform="matrix(1.33333,0,0,1.33333,16,16)"
       font-size="8.25"
       font-weight="400"
       font-style="normal"
       id="g20"
       style="font-style:normal;font-weight:400;font-size:8.25px;font-family:'MS Shell Dlg 2';fill:none;stroke:#000000;stroke-width:1;stroke-linecap:square;stroke-linejoin:bevel;stroke-opacity:1" />
    <g
       transform="translate(16,16)"
       font-size="8.25"
       font-weight="400"
       font-style="normal"
       id="g22"
       style="font-style:normal;font-weight:400;font-size:8.25px;font-family:'MS Shell Dlg 2';fill:none;stroke:#000000;stroke-width:1;stroke-linecap:square;stroke-linejoin:bevel;stroke-opacity:1" />
    <g
       font-size="8.25"
       font-weight="400"
       font-style="normal"
       id="g24"
       style="font-style:normal;font-weight:400;font-size:8.25px;font-family:'MS Shell Dlg 2';fill:none;stroke:#000000;stroke-width:1;stroke-linecap:square;stroke-linejoin:bevel;stroke-opacity:1" />
    <g
       transform="translate(16.2835,15.1496)"
       font-size="8.25"
       font-weight="400"
       font-style="normal"
       id="g28"
       style="font-style:normal;font-weight:400;font-size:8.25px;font-family:'MS Shell Dlg 2';fill:#000000;fill-opacity:1;stroke:#000000;stroke-width:0.0283465;stroke-linecap:square;stroke-linejoin:bevel;stroke-opacity:1">
      <path
         d="m -4.21094,-0.863281 h 1.47071 c 0.32031,0 0.56022,0.076172 0.71972,0.228515 0.15951,0.152344 0.23926,0.369141 0.23926,0.650391 0,0.289063 -0.08691,0.514974 -0.26074,0.677734 C -2.21582,0.85612 -2.48112,0.9375 -2.83789,0.9375 H -3.32227 V 2 h -0.88867 v -2.863281 m 0.88867,1.220703 h 0.2168 c 0.17057,0 0.29037,-0.029623 0.35938,-0.088867 0.06901,-0.059245 0.10351,-0.135091 0.10351,-0.2275394 0,-0.0898437 -0.02995,-0.1660156 -0.08984,-0.2285156 -0.0599,-0.0625 -0.17253,-0.09375 -0.33789,-0.09375 h -0.25196 v 0.638672 m 2.00391,0.212891 c 0,-0.467448 0.13021,-0.831381 0.390626,-1.091797 0.260416,-0.260417 0.623046,-0.390625 1.08789,-0.390625 0.476563,0 0.843754,0.127929 1.101564,0.383789 0.25781,0.255859 0.38672,0.6142575 0.38672,1.075195 0,0.334635 -0.05632,0.609045 -0.16895,0.823245 -0.11263,0.21419 -0.27539,0.38086 -0.488279,0.5 -0.212891,0.11914 -0.47819,0.17871 -0.795898,0.17871 -0.322917,0 -0.59017,-0.05143 -0.801758,-0.1543 C -0.818034,1.79167 -0.989583,1.62891 -1.12109,1.40625 -1.2526,1.18359 -1.31836,0.904948 -1.31836,0.570313 m 0.884766,0.003906 c 0,0.289062 0.053711,0.496741 0.161133,0.623051 0.107422,0.1263 0.2535808,0.18945 0.438477,0.18945 0.190104,0 0.337239,-0.06185 0.441406,-0.18555 0.104167,-0.1237 0.15625,-0.345701 0.15625,-0.666014 0,-0.269531 -0.054362,-0.4664711 -0.163086,-0.5908201 C 0.491862,-0.180013 0.344401,-0.242188 0.158203,-0.242188 c -0.1783853,0 -0.321614,0.063152 -0.429687,0.1894536 -0.108073,0.1263021 -0.16211,0.3352864 -0.16211,0.6269534 m 2.226564,-1.4375 H 2.67773 V 1.29492 H 4.05859 V 2 H 1.79297 v -2.863281"
         id="path26"
         inkscape:connector-curvature="0"
         style="vector-effect:none;fill-rule:evenodd" />
    </g>
    <g
       font-size="8.25"
       font-weight="400"
       font-style="normal"
       id="g30"
       style="font-style:normal;font-weight:400;font-size:8.25px;font-family:'MS Shell Dlg 2';fill:none;stroke:#000000;stroke-width:1;stroke-linecap:square;stroke-linejoin:bevel;stroke-opacity:1" />
  </g>
</svg>
