<svg viewBox="0 0 24 24" xmlns="http://www.w3.org/2000/svg">
  <!-- Background circle -->
  <circle cx="12" cy="12" r="11" fill="white" stroke="#888888" stroke-width="1"/>

  <!-- Stylized map with fold line -->
  <g transform="translate(5, 5) scale(0.6)">
    <!-- Map outline -->
    <rect x="1" y="1" width="22" height="18" rx="1" ry="1" fill="#f7f7e3" stroke="#666" stroke-width="1"/>

    <!-- Map details - rivers -->
    <path d="M1,9 C4,8 6,12 9,11 C12,10 14,14 17,13 C20,12 22,15 23,14" stroke="#b3d9ff" stroke-width="1.5" fill="none"/>
    <path d="M3,19 C6,18 8,15 11,16 C13,17 15,15 18,16 C20,17 23,14 23,14" stroke="#b3d9ff" stroke-width="1.5" fill="none"/>

    <!-- Map details - contour lines -->
    <path d="M1,5 C4,4 7,7 10,6 C13,5 16,8 19,7 C22,6 23,5 23,5" stroke="#cccccc" stroke-width="0.7" fill="none"/>
    <path d="M1,13 C4,12 7,15 10,14 C13,13 16,16 19,15 C22,14 23,13 23,13" stroke="#cccccc" stroke-width="0.7" fill="none"/>

    <!-- Vertical fold line -->
    <path d="M12,1 L12,19" stroke="#666" stroke-width="1" stroke-dasharray="2,1"/>

    <!-- Collapse/expand arrows -->
    <path d="M10,10 L7,10 L7,7" stroke="#444" stroke-width="1.2" fill="none" stroke-linecap="round" stroke-linejoin="round"/>
    <path d="M14,10 L17,10 L17,13" stroke="#444" stroke-width="1.2" fill="none" stroke-linecap="round" stroke-linejoin="round"/>
  </g>
</svg>
