<?xml version="1.0" encoding="UTF-8" standalone="no"?>
<svg
   xmlns:dc="http://purl.org/dc/elements/1.1/"
   xmlns:cc="http://creativecommons.org/ns#"
   xmlns:rdf="http://www.w3.org/1999/02/22-rdf-syntax-ns#"
   xmlns:svg="http://www.w3.org/2000/svg"
   xmlns="http://www.w3.org/2000/svg"
   xmlns:sodipodi="http://sodipodi.sourceforge.net/DTD/sodipodi-0.dtd"
   xmlns:inkscape="http://www.inkscape.org/namespaces/inkscape"
   width="4.2000103mm"
   height="4.2000103mm"
   viewBox="0 0 11.905529 11.905529"
   version="1.2"
   id="svg32"
   sodipodi:docname="edificacao_portuaria.svg"
   inkscape:version="0.92.4 (5da689c313, 2019-01-14)">
  <metadata
     id="metadata36">
    <rdf:RDF>
      <cc:Work
         rdf:about="">
        <dc:format>image/svg+xml</dc:format>
        <dc:type
           rdf:resource="http://purl.org/dc/dcmitype/StillImage" />
        <dc:title>Qt SVG Document</dc:title>
      </cc:Work>
    </rdf:RDF>
  </metadata>
  <sodipodi:namedview
     pagecolor="#ffffff"
     bordercolor="#666666"
     borderopacity="1"
     objecttolerance="10"
     gridtolerance="10"
     guidetolerance="10"
     inkscape:pageopacity="0"
     inkscape:pageshadow="2"
     inkscape:window-width="1920"
     inkscape:window-height="1017"
     id="namedview34"
     showgrid="false"
     fit-margin-top="0"
     fit-margin-left="0"
     fit-margin-right="0"
     fit-margin-bottom="0"
     inkscape:zoom="44.249955"
     inkscape:cx="8.9160796"
     inkscape:cy="7.5346123"
     inkscape:window-x="-8"
     inkscape:window-y="-8"
     inkscape:window-maximized="1"
     inkscape:current-layer="svg32" />
  <title
     id="title2">Qt SVG Document</title>
  <desc
     id="desc4">Generated with Qt</desc>
  <defs
     id="defs6" />
  <g
     style="font-style:normal;font-weight:400;font-size:8.25px;font-family:'MS Shell Dlg 2';fill:#ffffff;fill-opacity:1;fill-rule:evenodd;stroke:#000000;stroke-width:0.56692898;stroke-linecap:square;stroke-linejoin:bevel;stroke-opacity:1"
     id="g10"
     font-style="normal"
     font-weight="400"
     font-size="8.25"
     transform="translate(-10.047236,-10.047236)">
    <path
       style="vector-effect:none;fill-rule:evenodd"
       inkscape:connector-curvature="0"
       id="path8"
       d="M 10.3307,10.3307 H 21.6693 V 21.6693 H 10.3307 V 10.3307" />
  </g>
  <g
     style="font-style:normal;font-weight:400;font-size:8.25px;font-family:'MS Shell Dlg 2';fill:#ffffff;fill-opacity:1;fill-rule:evenodd;stroke:#000000;stroke-width:0.56692898;stroke-linecap:square;stroke-linejoin:bevel;stroke-opacity:1"
     id="g12"
     font-style="normal"
     font-weight="400"
     font-size="8.25"
     transform="translate(5.952764,5.952764)" />
  <g
     style="font-style:normal;font-weight:400;font-size:8.25px;font-family:'MS Shell Dlg 2';fill:#ffffff;fill-opacity:1;fill-rule:evenodd;stroke:#000000;stroke-width:0.56692898;stroke-linecap:square;stroke-linejoin:bevel;stroke-opacity:1"
     id="g14"
     font-style="normal"
     font-weight="400"
     font-size="8.25"
     transform="matrix(1.33333,0,0,1.33333,5.952764,5.952764)" />
  <g
     style="font-style:normal;font-weight:400;font-size:8.25px;font-family:'MS Shell Dlg 2';fill:#000000;fill-opacity:1;fill-rule:evenodd;stroke:none;stroke-width:1;stroke-linecap:square;stroke-linejoin:bevel"
     id="g18"
     font-style="normal"
     font-weight="400"
     font-size="8.25"
     transform="matrix(0.01947148,0,0,0.01947148,0.2856292,0.4664953)">
    <path
       style="vector-effect:none;fill-rule:nonzero"
       inkscape:connector-curvature="0"
       id="path16"
       d="m 434.605,482.811 c -15.029,7.814 -38.862,5.758 -55.734,-3.038 -23.249,-12.121 -36.412,-9.157 -60.778,1.677 -18.878,8.394 -35.917,8.39 -54.717,0 -24.351,-10.865 -36.91,-13.798 -60.159,-1.677 -16.872,8.796 -41.053,10.853 -56.082,3.038 -26.349,-13.705 -45.178,-16.26 -66.103,-3.345 0,0 -9.032,6.852 -28.932,6.852 v 48.488 c 12.55,0 22.35,-2.45 30.789,-7.622 10.709,-6.564 30.689,-13.415 54.455,-1.292 23.765,12.123 43.914,12.123 64.063,1.58 20.149,-10.541 31.315,-12.44 55.797,-1.844 23.765,12.123 47.272,11.008 67.42,0.467 24.482,-10.598 35.905,-9.164 56.055,1.377 20.15,10.543 40.298,10.543 64.063,-1.58 23.762,-12.123 43.104,-5.212 53.834,1.292 8.983,5.444 17.967,7.622 31.408,7.622 v -48.488 c -20.247,0.032 -28.932,-6.852 -28.932,-6.852 -20.92,-12.915 -40.099,-10.36 -66.447,3.345" />
  </g>
  <path
     d="M 10.046935,8.3401129 C 9.2462675,7.9033287 8.8977085,8.4350364 8.4673111,8.4350364 V 6.305947 L 9.1317753,4.7768323 C 9.2323649,4.540799 9.1316389,4.3251329 8.8902121,4.2224988 L 8.4880092,4.0588215 V 2.7347609 H 7.7127912 V 2.0374289 H 6.6266526 V 1.1027979 H 5.9524527 5.2788564 v 0.934631 H 4.1927178 v 0.697332 H 3.4174997 V 4.0588215 L 3.0152969,4.2224988 C 2.77387,4.3251329 2.6731245,4.540799 2.7737337,4.7768323 L 3.4375943,6.305947 V 8.4350364 C 3.0075083,8.4345496 2.6412498,7.9120714 1.8585742,8.348622 c 0,0 -0.223922,0.1249484 -0.5634657,0.1332628 V 9.3946104 C 1.5604074,9.3749052 1.6873809,9.3323406 1.8883851,9.2199707 2.1018119,9.1006495 2.4923124,8.9845216 2.9550521,9.2205742 3.4178308,9.456627 3.8101226,9.4568801 4.2024535,9.2516118 4.5947843,9.0463434 4.936645,9.0358483 5.3038187,9.2205742 5.7665974,9.456627 6.1297794,9.4592751 6.5962381,9.2260457 6.972583,9.0352252 7.3107441,9.0463434 7.703075,9.2516118 8.0954058,9.4568801 8.4877171,9.456627 8.9504763,9.2205742 9.4132354,8.9845216 9.8014188,9.1040958 10.01654,9.2199707 c 0.188931,0.1017579 0.321785,0.1549345 0.59388,0.1746397 V 8.4733562 C 10.264081,8.4650615 10.046935,8.3401129 10.046935,8.3401129 M 7.9141847,3.8123905 5.9524332,3.0030974 3.9912853,3.8123905 V 3.278132 H 4.7658802 V 2.5911587 h 1.186553 1.1871566 V 3.278132 h 0.7745949 v 0.5342585"
     id="path20"
     inkscape:connector-curvature="0"
     style="font-style:normal;font-weight:400;font-size:8.25px;font-family:'MS Shell Dlg 2';vector-effect:none;fill:#000000;fill-opacity:1;fill-rule:nonzero;stroke:none;stroke-width:0.01947148;stroke-linecap:square;stroke-linejoin:bevel" />
  <g
     style="font-style:normal;font-weight:400;font-size:8.25px;font-family:'MS Shell Dlg 2';fill:#ffffff;fill-opacity:1;fill-rule:evenodd;stroke:#000000;stroke-width:0.56692898;stroke-linecap:square;stroke-linejoin:bevel;stroke-opacity:1"
     id="g24"
     font-style="normal"
     font-weight="400"
     font-size="8.25"
     transform="matrix(1.33333,0,0,1.33333,5.952764,5.952764)" />
  <g
     style="font-style:normal;font-weight:400;font-size:8.25px;font-family:'MS Shell Dlg 2';fill:#ffffff;fill-opacity:1;fill-rule:evenodd;stroke:#000000;stroke-width:0.56692898;stroke-linecap:square;stroke-linejoin:bevel;stroke-opacity:1"
     id="g26"
     font-style="normal"
     font-weight="400"
     font-size="8.25"
     transform="translate(5.952764,5.952764)" />
  <g
     style="font-style:normal;font-weight:400;font-size:8.25px;font-family:'MS Shell Dlg 2';fill:#ffffff;fill-opacity:1;fill-rule:evenodd;stroke:#000000;stroke-width:0.56692898;stroke-linecap:square;stroke-linejoin:bevel;stroke-opacity:1"
     id="g28"
     font-style="normal"
     font-weight="400"
     font-size="8.25"
     transform="translate(-10.047236,-10.047236)" />
</svg>
