<?xml version="1.0" encoding="UTF-8" standalone="no"?>
<!-- Created with Inkscape (http://www.inkscape.org/) -->

<svg
   width="15mm"
   height="3.7mm"
   viewBox="0 0 15 3.7"
   version="1.1"
   id="svg8"
   inkscape:version="1.1 (c68e22c387, 2021-05-23)"
   sodipodi:docname="P30002C.svg"
   xmlns:inkscape="http://www.inkscape.org/namespaces/inkscape"
   xmlns:sodipodi="http://sodipodi.sourceforge.net/DTD/sodipodi-0.dtd"
   xmlns="http://www.w3.org/2000/svg"
   xmlns:svg="http://www.w3.org/2000/svg"
   xmlns:rdf="http://www.w3.org/1999/02/22-rdf-syntax-ns#"
   xmlns:cc="http://creativecommons.org/ns#"
   xmlns:dc="http://purl.org/dc/elements/1.1/">
  <defs
     id="defs2">
    <pattern
       y="0"
       x="0"
       height="6"
       width="6"
       patternUnits="userSpaceOnUse"
       id="EMFhbasepattern" />
  </defs>
  <sodipodi:namedview
     id="base"
     pagecolor="#ffffff"
     bordercolor="#666666"
     borderopacity="1.0"
     inkscape:pageopacity="0.0"
     inkscape:pageshadow="2"
     inkscape:zoom="7.919596"
     inkscape:cx="25.948293"
     inkscape:cy="10.16466"
     inkscape:document-units="mm"
     inkscape:current-layer="layer1"
     showgrid="false"
     inkscape:pagecheckerboard="true"
     inkscape:window-width="1920"
     inkscape:window-height="1017"
     inkscape:window-x="1912"
     inkscape:window-y="-8"
     inkscape:window-maximized="1" />
  <metadata
     id="metadata5">
    <rdf:RDF>
      <cc:Work
         rdf:about="">
        <dc:format>image/svg+xml</dc:format>
        <dc:type
           rdf:resource="http://purl.org/dc/dcmitype/StillImage" />
        <dc:title />
      </cc:Work>
    </rdf:RDF>
  </metadata>
  <g
     inkscape:label="Camada 1"
     inkscape:groupmode="layer"
     id="layer1"
     transform="translate(0,-293.3)">
    <rect
       style="fill:#000000;stroke-width:0.22786075"
       y="294.79999"
       x="2.0816682e-16"
       height="0.69999999"
       width="15"
       id="rect817" />
    <rect
       id="rect10"
       width="15"
       height="0.5"
       x="2.0816682e-16"
       y="294.89999"
       style="fill:#ff0000;fill-opacity:1;stroke-width:0.19257748" />
    <rect
       id="rect903"
       width="4.1270394"
       height="2.0270393"
       x="5.4364805"
       y="294.13647"
       style="fill:#ffffff;fill-opacity:1;stroke:#000000;stroke-width:0.0729608;stroke-linecap:round;stroke-linejoin:round;stroke-miterlimit:4;stroke-dasharray:none;stroke-opacity:1"
       ry="0.50614578" />
    <g
       id="g876"
       transform="translate(6.0720101,8.65186)">
      <path
         inkscape:connector-curvature="0"
         style="fill:#000000;fill-opacity:1;fill-rule:nonzero;stroke:none;stroke-width:0.26458332"
         d="M 0.75066038,286.98492 H 0.62366133 v -0.78316 c -0.042333,0.0212 -0.084666,0.0635 -0.12699905,0.0847 -0.042333,0.0212 -0.084666,0.0423 -0.12699904,0.0635 v -0.127 c 0.0634995,-0.0212 0.12699904,-0.0635 0.19049857,-0.10583 0.042333,-0.0423 0.0846661,-0.0847 0.10583257,-0.127 h 0.084666 z"
         id="path853" />
      <path
         inkscape:connector-curvature="0"
         style="fill:#000000;fill-opacity:1;fill-rule:nonzero;stroke:none;stroke-width:0.26458332"
         d="m 1.7031534,286.22293 -0.1269991,0.0212 c -0.021166,-0.0423 -0.021166,-0.0847 -0.042333,-0.10584 -0.042333,-0.0423 -0.084666,-0.0635 -0.1269991,-0.0635 -0.042333,0 -0.084666,0.0212 -0.1058325,0.0423 -0.042333,0.0212 -0.0635,0.0635 -0.084666,0.127 -0.021167,0.0423 -0.042333,0.12699 -0.042333,0.23283 0.021167,-0.0423 0.0635,-0.0847 0.1058326,-0.10584 0.042333,-0.0212 0.084666,-0.0423 0.126999,-0.0423 0.084666,0 0.1693321,0.0423 0.2116651,0.10583 0.0635,0.0635 0.084666,0.127 0.084666,0.23284 0,0.0635 0,0.12699 -0.042333,0.16933 -0.021167,0.0635 -0.063499,0.10583 -0.1058325,0.127 -0.042333,0.0212 -0.1058326,0.0423 -0.1481656,0.0423 -0.1058325,0 -0.1904985,-0.0423 -0.2539981,-0.10583 -0.0635,-0.0847 -0.1058325,-0.21167 -0.1058325,-0.381 0,-0.1905 0.042333,-0.33866 0.1058325,-0.42333 0.0635,-0.0847 0.1481656,-0.10583 0.2539981,-0.10583 0.084666,0 0.1481656,0.0212 0.1904986,0.0635 0.063499,0.0423 0.084666,0.10583 0.1058326,0.16933 z m -0.5079963,0.4445 c 0,0.0423 0,0.0847 0.021167,0.12699 0.021167,0.0212 0.042333,0.0635 0.084666,0.0847 0.021166,0.0212 0.063499,0.0212 0.1058325,0.0212 0.042333,0 0.084666,-0.0212 0.1269991,-0.0635 0.042333,-0.0423 0.042333,-0.0847 0.042333,-0.16933 0,-0.0635 0,-0.127 -0.042333,-0.16934 -0.042333,-0.0212 -0.084666,-0.0423 -0.1481656,-0.0423 -0.042333,0 -0.1058325,0.0212 -0.126999,0.0423 -0.042333,0.0423 -0.0635,0.10584 -0.0635,0.16934 z"
         id="path855" />
      <path
         inkscape:connector-curvature="0"
         style="fill:#000000;fill-opacity:1;fill-rule:nonzero;stroke:none;stroke-width:0.26458332"
         d="m 1.8301524,286.73092 0.1269991,-0.0212 c 0.021167,0.0635 0.042333,0.127 0.0635,0.14816 0.042333,0.0212 0.084666,0.0423 0.1269991,0.0423 0.063499,0 0.1058325,-0.0212 0.1481655,-0.0635 0.042333,-0.0423 0.0635,-0.0847 0.0635,-0.14817 0,-0.0423 -0.021167,-0.10583 -0.042333,-0.127 -0.042333,-0.0423 -0.084666,-0.0635 -0.1481656,-0.0635 -0.021167,0 -0.0635,0 -0.084666,0.0212 v -0.10583 c 0.021167,0 0.021167,0 0.021167,0 0.0635,0 0.1058325,-0.0212 0.1481655,-0.0423 0.042333,-0.0423 0.0635,-0.0847 0.0635,-0.12699 0,-0.0423 -0.021167,-0.0847 -0.042333,-0.127 -0.042333,-0.0212 -0.0635,-0.0423 -0.126999,-0.0423 -0.042333,0 -0.084666,0.0212 -0.1058326,0.0635 -0.042333,0.0212 -0.063499,0.0635 -0.063499,0.127 l -0.1269991,-0.0212 c 0.021167,-0.0847 0.042333,-0.14817 0.1058326,-0.1905 0.042333,-0.0423 0.1058325,-0.0635 0.1904986,-0.0635 0.063499,0 0.1058325,0 0.1481655,0.0212 0.042333,0.0212 0.084666,0.0635 0.1058325,0.10584 0.021167,0.0423 0.042333,0.0847 0.042333,0.127 0,0.0423 -0.021166,0.0847 -0.042333,0.10583 -0.021166,0.0423 -0.042333,0.0847 -0.1058325,0.0847 0.0635,0.0212 0.1058325,0.0423 0.1481656,0.10584 0.042333,0.0423 0.042333,0.0847 0.042333,0.14816 0,0.0847 -0.021166,0.16933 -0.084666,0.23283 -0.063499,0.0635 -0.1481655,0.0847 -0.253998,0.0847 -0.084666,0 -0.1481656,-0.0212 -0.2116651,-0.0847 -0.063499,-0.0423 -0.084666,-0.10583 -0.1058326,-0.1905 z"
         id="path857" />
    </g>
  </g>
</svg>
