<?xml version="1.0" encoding="UTF-8" standalone="no"?>
<svg
   xmlns:dc="http://purl.org/dc/elements/1.1/"
   xmlns:cc="http://creativecommons.org/ns#"
   xmlns:rdf="http://www.w3.org/1999/02/22-rdf-syntax-ns#"
   xmlns:svg="http://www.w3.org/2000/svg"
   xmlns="http://www.w3.org/2000/svg"
   xmlns:sodipodi="http://sodipodi.sourceforge.net/DTD/sodipodi-0.dtd"
   xmlns:inkscape="http://www.inkscape.org/namespaces/inkscape"
   width="3.2513325mm"
   height="3.2251697mm"
   viewBox="0 0 9.2163663 9.1422039"
   version="1.2"
   id="svg52"
   sodipodi:docname="queda_dagua_ou_corredeira.svg"
   inkscape:version="0.92.4 (5da689c313, 2019-01-14)">
  <metadata
     id="metadata56">
    <rdf:RDF>
      <cc:Work
         rdf:about="">
        <dc:format>image/svg+xml</dc:format>
        <dc:type
           rdf:resource="http://purl.org/dc/dcmitype/StillImage" />
        <dc:title>Qt SVG Document</dc:title>
      </cc:Work>
    </rdf:RDF>
  </metadata>
  <sodipodi:namedview
     pagecolor="#ffffff"
     bordercolor="#666666"
     borderopacity="1"
     objecttolerance="10"
     gridtolerance="10"
     guidetolerance="10"
     inkscape:pageopacity="0"
     inkscape:pageshadow="2"
     inkscape:window-width="732"
     inkscape:window-height="480"
     id="namedview54"
     showgrid="false"
     fit-margin-top="0"
     fit-margin-left="0"
     fit-margin-right="0"
     fit-margin-bottom="0"
     inkscape:zoom="5.5312444"
     inkscape:cx="6.0789347"
     inkscape:cy="6.1043737"
     inkscape:window-x="0"
     inkscape:window-y="0"
     inkscape:window-maximized="0"
     inkscape:current-layer="svg52" />
  <title
     id="title2">Qt SVG Document</title>
  <desc
     id="desc4">Generated with Qt</desc>
  <defs
     id="defs6" />
  <g
     id="g50"
     style="fill:none;fill-rule:evenodd;stroke:#000000;stroke-width:1;stroke-linecap:square;stroke-linejoin:bevel"
     transform="translate(-11.440804,-11.436072)">
    <g
       transform="translate(16,16)"
       font-size="8.25"
       font-weight="400"
       font-style="normal"
       id="g8"
       style="font-style:normal;font-weight:400;font-size:8.25px;font-family:'MS Shell Dlg 2';fill:none;stroke:#000000;stroke-width:1;stroke-linecap:square;stroke-linejoin:bevel;stroke-opacity:1" />
    <g
       transform="matrix(1.33333,0,0,1.33333,16,16)"
       font-size="8.25"
       font-weight="400"
       font-style="normal"
       id="g10"
       style="font-style:normal;font-weight:400;font-size:8.25px;font-family:'MS Shell Dlg 2';fill:none;stroke:#000000;stroke-width:1;stroke-linecap:square;stroke-linejoin:bevel;stroke-opacity:1" />
    <g
       transform="matrix(0.0683302,0,0,0.0632712,13.842,-7.67318)"
       font-size="8.25"
       font-weight="400"
       font-style="normal"
       id="g14"
       style="font-style:normal;font-weight:400;font-size:8.25px;font-family:'MS Shell Dlg 2';fill:#ffffff;fill-opacity:1;stroke:none">
      <path
         d="M -34.0094,303.153 H 98.6071 V 445.382 H -34.0094 V 303.153"
         id="path12"
         inkscape:connector-curvature="0"
         style="vector-effect:none;fill-rule:evenodd" />
    </g>
    <g
       transform="matrix(0.0683302,0,0,0.0632712,13.842,-7.67318)"
       font-size="8.25"
       font-weight="400"
       font-style="normal"
       id="g18"
       style="font-style:normal;font-weight:400;font-size:8.25px;font-family:'MS Shell Dlg 2';fill:none;stroke:#000000;stroke-width:2.26334;stroke-linecap:butt;stroke-linejoin:round;stroke-opacity:1">
      <path
         d="M -34.0094,303.153 H 98.6071 V 445.382 H -34.0094 V 303.153"
         id="path16"
         inkscape:connector-curvature="0"
         style="vector-effect:none;fill-rule:evenodd" />
    </g>
    <g
       transform="matrix(0.041907,0,0,0.0373568,17.1421,3.24165)"
       font-size="8.25"
       font-weight="400"
       font-style="normal"
       id="g22"
       style="font-style:normal;font-weight:400;font-size:8.25px;font-family:'MS Shell Dlg 2';fill:#ffffff;fill-opacity:1;stroke:none">
      <path
         d="m -100.943,286.619 c 3.5781,-9.581 10.436,-17.902 19.1568,-23.244 8.7208,-5.343 19.249,-7.673 29.4096,-6.508 8.37,0.958 16.2941,4.174 24.0632,7.433 7.7691,3.258 15.6088,6.621 23.93548,7.903 10.50552,1.617 21.51742,-0.248 30.90432,-5.235 9.387,-4.987 17.0973,-13.067 21.6386,-22.677"
         id="path20"
         inkscape:connector-curvature="0"
         style="vector-effect:none;fill-rule:nonzero" />
    </g>
    <g
       stroke-miterlimit="4"
       transform="matrix(0.041907,0,0,0.0373568,17.1421,3.24165)"
       font-size="8.25"
       font-weight="400"
       font-style="normal"
       id="g26"
       style="font-style:normal;font-weight:400;font-size:8.25px;font-family:'MS Shell Dlg 2';fill:none;stroke:#00e3fb;stroke-width:16.29870033;stroke-linecap:butt;stroke-linejoin:miter;stroke-miterlimit:4;stroke-opacity:1">
      <path
         d="m -100.943,286.619 c 3.5781,-9.581 10.436,-17.902 19.1568,-23.244 8.7208,-5.343 19.249,-7.673 29.4096,-6.508 8.37,0.958 16.2941,4.174 24.0632,7.433 7.7691,3.258 15.6088,6.621 23.93548,7.903 10.50552,1.617 21.51742,-0.248 30.90432,-5.235 9.387,-4.987 17.0973,-13.067 21.6386,-22.677"
         id="path24"
         inkscape:connector-curvature="0"
         style="vector-effect:none;fill-rule:nonzero" />
    </g>
    <g
       transform="matrix(0.041907,0,0,0.0373568,17.2695,6.03894)"
       font-size="8.25"
       font-weight="400"
       font-style="normal"
       id="g30"
       style="font-style:normal;font-weight:400;font-size:8.25px;font-family:'MS Shell Dlg 2';fill:none;stroke:none">
      <path
         d="m -100.943,286.619 c 3.5781,-9.581 10.436,-17.902 19.1568,-23.244 8.7208,-5.343 19.249,-7.673 29.4096,-6.508 8.37,0.958 16.2941,4.174 24.0632,7.433 7.7691,3.258 15.6088,6.621 23.93548,7.903 10.50552,1.617 21.51742,-0.248 30.90432,-5.235 9.387,-4.987 17.0973,-13.067 21.6386,-22.677"
         id="path28"
         inkscape:connector-curvature="0"
         style="vector-effect:none;fill-rule:nonzero" />
    </g>
    <g
       stroke-miterlimit="4"
       transform="matrix(0.041907,0,0,0.0373568,17.2695,6.03894)"
       font-size="8.25"
       font-weight="400"
       font-style="normal"
       id="g34"
       style="font-style:normal;font-weight:400;font-size:8.25px;font-family:'MS Shell Dlg 2';fill:none;stroke:#00e3fb;stroke-width:16.29870033;stroke-linecap:butt;stroke-linejoin:miter;stroke-miterlimit:4;stroke-opacity:1">
      <path
         d="m -100.943,286.619 c 3.5781,-9.581 10.436,-17.902 19.1568,-23.244 8.7208,-5.343 19.249,-7.673 29.4096,-6.508 8.37,0.958 16.2941,4.174 24.0632,7.433 7.7691,3.258 15.6088,6.621 23.93548,7.903 10.50552,1.617 21.51742,-0.248 30.90432,-5.235 9.387,-4.987 17.0973,-13.067 21.6386,-22.677"
         id="path32"
         inkscape:connector-curvature="0"
         style="vector-effect:none;fill-rule:nonzero" />
    </g>
    <g
       transform="matrix(0.041907,0,0,0.0373568,17.3083,8.77531)"
       font-size="8.25"
       font-weight="400"
       font-style="normal"
       id="g38"
       style="font-style:normal;font-weight:400;font-size:8.25px;font-family:'MS Shell Dlg 2';fill:none;stroke:none">
      <path
         d="m -100.943,286.619 c 3.5781,-9.581 10.436,-17.902 19.1568,-23.244 8.7208,-5.343 19.249,-7.673 29.4096,-6.508 8.37,0.958 16.2941,4.174 24.0632,7.433 7.7691,3.258 15.6088,6.621 23.93548,7.903 10.50552,1.617 21.51742,-0.248 30.90432,-5.235 9.387,-4.987 17.0973,-13.067 21.6386,-22.677"
         id="path36"
         inkscape:connector-curvature="0"
         style="vector-effect:none;fill-rule:nonzero" />
    </g>
    <g
       stroke-miterlimit="4"
       transform="matrix(0.041907,0,0,0.0373568,17.3083,8.77531)"
       font-size="8.25"
       font-weight="400"
       font-style="normal"
       id="g42"
       style="font-style:normal;font-weight:400;font-size:8.25px;font-family:'MS Shell Dlg 2';fill:none;stroke:#00e3fb;stroke-width:16.29870033;stroke-linecap:butt;stroke-linejoin:miter;stroke-miterlimit:4;stroke-opacity:1">
      <path
         d="m -100.943,286.619 c 3.5781,-9.581 10.436,-17.902 19.1568,-23.244 8.7208,-5.343 19.249,-7.673 29.4096,-6.508 8.37,0.958 16.2941,4.174 24.0632,7.433 7.7691,3.258 15.6088,6.621 23.93548,7.903 10.50552,1.617 21.51742,-0.248 30.90432,-5.235 9.387,-4.987 17.0973,-13.067 21.6386,-22.677"
         id="path40"
         inkscape:connector-curvature="0"
         style="vector-effect:none;fill-rule:nonzero" />
    </g>
    <g
       transform="matrix(1.33333,0,0,1.33333,16,16)"
       font-size="8.25"
       font-weight="400"
       font-style="normal"
       id="g44"
       style="font-style:normal;font-weight:400;font-size:8.25px;font-family:'MS Shell Dlg 2';fill:none;stroke:#000000;stroke-width:1;stroke-linecap:square;stroke-linejoin:bevel;stroke-opacity:1" />
    <g
       transform="translate(16,16)"
       font-size="8.25"
       font-weight="400"
       font-style="normal"
       id="g46"
       style="font-style:normal;font-weight:400;font-size:8.25px;font-family:'MS Shell Dlg 2';fill:none;stroke:#000000;stroke-width:1;stroke-linecap:square;stroke-linejoin:bevel;stroke-opacity:1" />
    <g
       font-size="8.25"
       font-weight="400"
       font-style="normal"
       id="g48"
       style="font-style:normal;font-weight:400;font-size:8.25px;font-family:'MS Shell Dlg 2';fill:none;stroke:#000000;stroke-width:1;stroke-linecap:square;stroke-linejoin:bevel;stroke-opacity:1" />
  </g>
</svg>
